<svg width="24" height="25" viewBox="0 0 24 25" fill="none" xmlns="http://www.w3.org/2000/svg">

    <!--logo-->
    <g id="logo">
        <path d="M27.0534 13.9394C25.8826 10.9194 23.7009 8.39886 20.88 6.80714C18.0591 5.21542 14.7736 4.65104 11.5832 5.21018C8.39288 5.76931 5.4951 7.41736 3.38364 9.87351C1.27218 12.3297 0.0776728 15.4419 0.00365596 18.6801C-0.0703609 21.9182 0.980689 25.0818 2.97772 27.6319C4.97475 30.1819 7.7942 31.9607 10.9557 32.665C14.1171 33.3693 17.425 32.9557 20.3157 31.4945C23.2063 30.0333 25.5009 27.6151 26.8085 24.6517L14 19L27.0534 13.9394Z"
              fill="#D3F85A"/>
        <circle cx="6" cy="19" r="2" fill="#090F1D"/>
        <path d="M58.208 45.144C57.632 45.592 56.5227 46.0933 54.88 46.648C53.2587 47.2027 51.4773 47.48 49.536 47.48C45.8453 47.48 42.816 46.3387 40.448 44.056C38.1013 41.7733 36.928 38.8933 36.928 35.416C36.928 31.9387 38.1653 29.016 40.64 26.648C43.1147 24.28 46.2293 23.096 49.984 23.096C52.6293 23.096 55.328 23.5547 58.08 24.472L58.72 30.008L58.432 30.104C56.7467 27.7573 55.2853 26.1147 54.048 25.176C52.8107 24.2373 51.36 23.768 49.696 23.768C48.3307 23.768 47.136 24.056 46.112 24.632C45.1093 25.1867 44.3093 25.9973 43.712 27.064C43.1147 28.1307 42.6773 29.3573 42.4 30.744C42.1227 32.1093 41.984 33.6667 41.984 35.416C41.984 38.936 42.624 41.72 43.904 43.768C45.184 45.7947 47.072 46.808 49.568 46.808C51.5307 46.808 53.1733 46.168 54.496 44.888C55.8187 43.608 57.1733 41.6347 58.56 38.968L58.848 39.064L58.208 45.144ZM61.7853 47V46.936C62.2759 45.336 62.5213 43.3733 62.5213 41.048V37.336C62.5213 35.5013 62.0199 33.976 61.0173 32.76V32.696L66.4893 30.936V34.84H66.5213C66.6279 34.7333 66.8946 34.4347 67.3213 33.944C67.7479 33.4533 68.0786 33.0907 68.3133 32.856C68.5693 32.6213 68.8999 32.3333 69.3053 31.992C69.7319 31.6507 70.1586 31.416 70.5853 31.288C71.0119 31.1387 71.4493 31.0747 71.8973 31.096L71.6093 35.672H71.4493C71.1293 35.3093 70.6386 34.9893 69.9773 34.712C69.3373 34.4347 68.8146 34.296 68.4093 34.296C67.8546 34.296 67.2573 34.68 66.6173 35.448V41.048C66.6173 43.6507 66.8626 45.6133 67.3533 46.936V47H61.7853ZM80.506 31.672C79.5033 31.672 78.714 32.1733 78.138 33.176C77.5833 34.1787 77.2633 35.4587 77.178 37.016L83.066 36.888V36.152C83.066 33.1653 82.2127 31.672 80.506 31.672ZM87.13 42.584C86.682 44.056 85.882 45.24 84.73 46.136C83.5993 47.032 82.1913 47.48 80.506 47.48C78.2873 47.48 76.4847 46.7333 75.098 45.24C73.7327 43.7253 73.05 41.8373 73.05 39.576C73.05 37.1013 73.8073 35.0747 75.322 33.496C76.8367 31.896 78.618 31.096 80.666 31.096C82.6073 31.096 84.1753 31.7787 85.37 33.144C86.586 34.488 87.1727 35.9707 87.13 37.592L77.178 37.56V37.656C77.178 39.96 77.658 41.656 78.618 42.744C79.5993 43.8107 80.9327 44.344 82.618 44.344C84.4527 44.344 85.8927 43.7253 86.938 42.488L87.13 42.584ZM94.6895 45.272C95.4788 45.272 96.1615 45.0587 96.7375 44.632V39.608C93.8788 40.3333 92.4495 41.5387 92.4495 43.224C92.4495 43.864 92.6415 44.3653 93.0255 44.728C93.4308 45.0907 93.9855 45.272 94.6895 45.272ZM99.8415 47.416C98.9882 47.416 98.3055 47.2133 97.7935 46.808C97.2815 46.4027 96.9615 45.8587 96.8335 45.176C95.6175 46.712 94.0922 47.48 92.2575 47.48C91.2335 47.48 90.3908 47.2347 89.7295 46.744C89.0895 46.2533 88.7695 45.5173 88.7695 44.536C88.7695 41.8907 91.4255 40.056 96.7375 39.032V36.216C96.7375 35.2773 96.5135 34.584 96.0655 34.136C95.6175 33.688 94.8388 33.464 93.7295 33.464C92.1722 33.464 90.7748 33.8587 89.5375 34.648L89.3775 34.424C91.1268 32.2053 93.4308 31.096 96.2895 31.096C97.8682 31.096 99.0202 31.4587 99.7455 32.184C100.471 32.9093 100.834 33.88 100.834 35.096V43.8C100.834 44.7387 101.271 45.208 102.146 45.208C102.636 45.208 103.106 45.0373 103.554 44.696L103.618 44.792C102.764 46.5413 101.506 47.416 99.8415 47.416ZM109.8 47.48C107.155 47.48 105.832 46.104 105.832 43.352V32.216H104.072V31.992L109.608 27.928H109.928V31.576H113.928V32.216H109.928V43.224C109.928 44.8667 110.686 45.688 112.2 45.688C112.542 45.688 112.872 45.6453 113.192 45.56C113.512 45.4747 113.747 45.4 113.896 45.336C114.046 45.2507 114.142 45.1867 114.184 45.144L114.28 45.24C113.32 46.7333 111.827 47.48 109.8 47.48ZM120.96 25.976C120.96 26.616 120.726 27.16 120.256 27.608C119.808 28.056 119.264 28.28 118.624 28.28C117.984 28.28 117.44 28.056 116.992 27.608C116.544 27.16 116.32 26.616 116.32 25.976C116.32 25.3573 116.544 24.824 116.992 24.376C117.44 23.9067 117.984 23.672 118.624 23.672C119.264 23.672 119.808 23.9067 120.256 24.376C120.726 24.824 120.96 25.3573 120.96 25.976ZM116.128 46.936C116.64 45.0373 116.896 43.0747 116.896 41.048V37.432C116.896 35.5547 116.384 34.04 115.36 32.888V32.696L120.96 30.936V41.048C120.96 43.6293 121.206 45.592 121.696 46.936V47H116.128V46.936ZM124.895 35.864C124.127 33.9013 123.369 32.4933 122.623 31.64V31.576H129.247V31.64C128.991 32.0453 128.841 32.5893 128.799 33.272C128.777 33.9547 128.927 34.776 129.247 35.736L131.647 42.072L133.951 36.344C134.207 35.6613 134.345 34.9893 134.367 34.328C134.388 33.6453 134.335 33.1013 134.207 32.696C134.079 32.2693 133.919 31.9173 133.727 31.64V31.576H137.407V31.64C136.404 32.728 135.529 34.1787 134.783 35.992L130.239 47.288H129.407L124.895 35.864ZM144.819 31.672C143.816 31.672 143.027 32.1733 142.451 33.176C141.896 34.1787 141.576 35.4587 141.491 37.016L147.379 36.888V36.152C147.379 33.1653 146.525 31.672 144.819 31.672ZM151.443 42.584C150.995 44.056 150.195 45.24 149.043 46.136C147.912 47.032 146.504 47.48 144.819 47.48C142.6 47.48 140.797 46.7333 139.411 45.24C138.045 43.7253 137.363 41.8373 137.363 39.576C137.363 37.1013 138.12 35.0747 139.635 33.496C141.149 31.896 142.931 31.096 144.979 31.096C146.92 31.096 148.488 31.7787 149.683 33.144C150.899 34.488 151.485 35.9707 151.443 37.592L141.491 37.56V37.656C141.491 39.96 141.971 41.656 142.931 42.744C143.912 43.8107 145.245 44.344 146.931 44.344C148.765 44.344 150.205 43.7253 151.251 42.488L151.443 42.584Z"
              fill="white"/>
        <path d="M159.002 45.272C159.791 45.272 160.474 45.0587 161.05 44.632V39.608C158.191 40.3333 156.762 41.5387 156.762 43.224C156.762 43.864 156.954 44.3653 157.338 44.728C157.743 45.0907 158.298 45.272 159.002 45.272ZM164.154 47.416C163.301 47.416 162.618 47.2133 162.106 46.808C161.594 46.4027 161.274 45.8587 161.146 45.176C159.93 46.712 158.405 47.48 156.57 47.48C155.546 47.48 154.703 47.2347 154.042 46.744C153.402 46.2533 153.082 45.5173 153.082 44.536C153.082 41.8907 155.738 40.056 161.05 39.032V36.216C161.05 35.2773 160.826 34.584 160.378 34.136C159.93 33.688 159.151 33.464 158.042 33.464C156.485 33.464 155.087 33.8587 153.85 34.648L153.69 34.424C155.439 32.2053 157.743 31.096 160.602 31.096C162.181 31.096 163.333 31.4587 164.058 32.184C164.783 32.9093 165.146 33.88 165.146 35.096V43.8C165.146 44.7387 165.583 45.208 166.458 45.208C166.949 45.208 167.418 45.0373 167.866 44.696L167.93 44.792C167.077 46.5413 165.818 47.416 164.154 47.416ZM169.16 47V46.936C169.651 45.336 169.896 43.3733 169.896 41.048V37.336C169.896 35.5013 169.395 33.976 168.392 32.76V32.696L173.864 30.936V34.84H173.896C174.003 34.7333 174.27 34.4347 174.696 33.944C175.123 33.4533 175.454 33.0907 175.688 32.856C175.944 32.6213 176.275 32.3333 176.68 31.992C177.107 31.6507 177.534 31.416 177.96 31.288C178.387 31.1387 178.824 31.0747 179.272 31.096L178.984 35.672H178.824C178.504 35.3093 178.014 34.9893 177.352 34.712C176.712 34.4347 176.19 34.296 175.784 34.296C175.23 34.296 174.632 34.68 173.992 35.448V41.048C173.992 43.6507 174.238 45.6133 174.728 46.936V47H169.16ZM186.238 47.48C183.592 47.48 182.27 46.104 182.27 43.352V32.216H180.51V31.992L186.046 27.928H186.366V31.576H190.366V32.216H186.366V43.224C186.366 44.8667 187.123 45.688 188.638 45.688C188.979 45.688 189.31 45.6453 189.63 45.56C189.95 45.4747 190.184 45.4 190.334 45.336C190.483 45.2507 190.579 45.1867 190.622 45.144L190.718 45.24C189.758 46.7333 188.264 47.48 186.238 47.48Z"
              fill="#D3F85A"/>
    </g>

    <g id="text">
        <path d="M85.5 68L90.2266 80.7734L103 85.5L90.2266 90.2266L85.5 103L80.7734 90.2266L68 85.5L80.7734 80.7734L85.5 68Z"
              fill="white"/>
        <path d="M10.7624 86.2203L11.7193 86.4876L11.7454 84.2637L10.7827 84.4925C10.2584 84.625 9.70209 84.7625 9.11371 84.9049C8.52546 85.0367 7.95854 85.1687 7.41295 85.301L7.4122 85.365C7.96533 85.4995 8.53439 85.6395 9.1194 85.7851C9.69386 85.9198 10.2415 86.0649 10.7624 86.2203ZM15.9978 90.058L5.60476 86.6719L5.63796 83.8401L16.1075 80.6986L16.0782 83.1945L13.5909 83.8053L13.5536 86.9891L16.0259 87.6581L15.9978 90.058Z"
              fill="white"/>
        <path d="M16.9531 74.3425L9.17522 72.7663L9.55654 70.8846L10.9526 71.0042L10.9653 70.9415C10.4998 70.5533 10.1818 70.1352 10.0114 69.6871C9.83058 69.2369 9.7804 68.8131 9.8609 68.4159C9.90539 68.1963 9.95815 68.0166 10.0192 67.8766C10.0697 67.7344 10.1317 67.6164 10.2052 67.5224L12.1205 68.3024C12.0511 68.4298 11.9922 68.5593 11.9438 68.691C11.8974 68.8122 11.8573 68.9565 11.8234 69.1237C11.7641 69.4164 11.8114 69.7471 11.9652 70.1157C12.1108 70.4717 12.4237 70.8072 12.904 71.1222L17.4202 72.0373L16.9531 74.3425Z"
              fill="white"/>
        <path d="M21.095 60.2577C20.7427 61.1736 20.2261 61.7291 19.5453 61.9244C18.8683 62.1097 18.1017 62.0376 17.2455 61.7083L14.244 60.5536L13.8533 61.5691L12.2256 60.9429L12.5726 59.7735L10.6991 58.7614L11.3999 56.9396L13.3711 57.6978L14.0547 55.9208L15.772 56.5814L15.0884 58.3585L18.0601 59.5016C18.4782 59.6625 18.8144 59.6947 19.0687 59.5982C19.3168 59.4879 19.4964 59.2884 19.6075 58.9997C19.6534 58.8802 19.6845 58.755 19.7006 58.6241C19.7205 58.4832 19.7297 58.3553 19.7281 58.2404L21.4581 58.5116C21.4451 58.7237 21.4148 58.9807 21.3673 59.2824C21.3237 59.5742 21.2329 59.8993 21.095 60.2577Z"
              fill="white"/>
        <path d="M25.0651 51.2443L17.3299 48.5829L18.603 46.6243L22.107 47.9859C22.4728 48.1473 22.8312 48.3103 23.1823 48.4748C23.5333 48.6394 23.8962 48.8053 24.2709 48.9725L24.3058 48.9188C24.0066 48.6353 23.709 48.3592 23.413 48.0905C23.1228 47.8128 22.8473 47.532 22.5866 47.248L19.9807 44.5047L21.0881 42.801L24.6619 44.0552C25.0451 44.1898 25.418 44.3304 25.7807 44.4771C26.1492 44.6148 26.5237 44.7628 26.9042 44.9211L26.9391 44.8674C26.6399 44.5839 26.341 44.3197 26.0423 44.0746C25.7494 43.8206 25.4578 43.5548 25.1676 43.2771L22.4919 40.6411L23.6778 38.8166L29.2941 44.7379L27.7944 47.0454L24.7458 45.9226C24.392 45.7817 24.0383 45.6409 23.6846 45.5C23.3367 45.3502 22.9635 45.1904 22.5651 45.0205L22.5302 45.0741C22.8473 45.3692 23.1449 45.6454 23.423 45.9025C23.707 46.1506 23.9851 46.4078 24.2575 46.6738L26.53 48.9906L25.0651 51.2443Z"
              fill="white"/>
        <path d="M37.2683 35.9619C36.7865 36.4304 36.22 36.7581 35.5686 36.9451C34.9175 37.117 34.2463 37.1076 33.555 36.9169C32.8563 36.7185 32.202 36.3058 31.5923 35.6787C30.9751 35.0439 30.5808 34.3784 30.4096 33.682C30.2383 32.9856 30.2514 32.3182 30.449 31.6798C30.6467 31.0263 30.9865 30.4654 31.4683 29.9969C31.95 29.5284 32.5165 29.2082 33.1676 29.0363C33.8113 28.8568 34.4788 28.8624 35.1701 29.0531C35.8614 29.2438 36.5157 29.6566 37.1329 30.2913C37.7426 30.9184 38.1368 31.584 38.3155 32.288C38.4868 32.9844 38.4774 33.6556 38.2873 34.3016C38.0898 34.94 37.7501 35.4935 37.2683 35.9619ZM35.941 34.5969C36.2851 34.2622 36.4039 33.8641 36.2972 33.4025C36.1831 32.9332 35.8881 32.4538 35.4122 31.9644C34.9288 31.4673 34.4579 31.159 33.9995 31.0394C33.541 30.9198 33.1397 31.0273 32.7956 31.362C32.4438 31.704 32.3212 32.1059 32.4279 32.5675C32.5422 33.0217 32.8411 33.4973 33.3244 33.9944C33.8003 34.4839 34.2674 34.7959 34.7256 34.9306C35.1841 35.0501 35.5892 34.9389 35.941 34.5969Z"
              fill="white"/>
        <path d="M44.9349 29.2141L40.5188 22.6204L42.114 21.5519L43.0216 22.6195L43.0747 22.5839C43.0172 21.9805 43.0857 21.4596 43.28 21.0214C43.4684 20.5743 43.7309 20.2379 44.0677 20.0124C44.2538 19.8877 44.4178 19.7971 44.5597 19.7406C44.6957 19.6752 44.8228 19.635 44.9411 19.62L45.7528 21.522C45.6138 21.5637 45.4808 21.6143 45.3537 21.6737C45.2355 21.7272 45.1055 21.8015 44.9637 21.8964C44.7155 22.0626 44.5164 22.3308 44.3663 22.7009C44.2192 23.0562 44.2054 23.5148 44.3249 24.0767L46.8891 27.9053L44.9349 29.2141Z"
              fill="white"/>
        <path d="M54.8824 23.1757L50.4229 12.8843L52.5223 11.9746L55.0796 17.8763L55.1384 17.8509L56.19 13.96L58.539 12.9421L57.2823 17.044L61.8852 20.1412L59.5509 21.1527L56.6789 19.0317L56.2056 20.4749L56.9817 22.2659L54.8824 23.1757Z"
              fill="white"/>
        <path d="M70.982 17.8365C70.3252 17.9791 69.6711 17.9573 69.0195 17.7713C68.376 17.5726 67.8115 17.2094 67.3258 16.6817C66.8379 16.1436 66.5012 15.4472 66.3157 14.5924C66.128 13.7272 66.1457 12.9539 66.3689 12.2723C66.5921 11.5908 66.9564 11.0315 67.4618 10.5944C67.9755 10.1445 68.5606 9.84834 69.2173 9.70581C69.874 9.56329 70.5241 9.59138 71.1676 9.7901C71.8088 9.97839 72.3722 10.3364 72.8578 10.864C73.3434 11.3917 73.6801 12.0881 73.8679 12.9533C74.0534 13.8081 74.0357 14.5815 73.8148 15.2734C73.5916 15.9549 73.2284 16.5194 72.7252 16.967C72.2197 17.4042 71.6387 17.694 70.982 17.8365ZM70.5781 15.9758C71.0472 15.874 71.3586 15.5991 71.5124 15.1509C71.6639 14.6923 71.6673 14.1295 71.5225 13.4624C71.3755 12.7848 71.1391 12.274 70.8134 11.9299C70.4876 11.5858 70.0902 11.4647 69.6212 11.5665C69.1417 11.6706 68.825 11.9467 68.6712 12.3948C68.5279 12.8407 68.5297 13.4024 68.6768 14.08C68.8216 14.7471 69.0527 15.2591 69.3703 15.6158C69.696 15.9599 70.0986 16.0799 70.5781 15.9758Z"
              fill="white"/>
        <path d="M81.4722 16.1673L81.2318 10.0761L80.1766 10.1177L80.1079 8.37508L81.1599 8.2535L81.1428 7.82183C81.1205 7.25694 81.1963 6.74155 81.37 6.27567C81.5438 5.80979 81.8384 5.42987 82.2538 5.13593C82.6692 4.84198 83.2339 4.68092 83.948 4.65273C84.2785 4.63969 84.5835 4.65968 84.8631 4.71269C85.1428 4.76571 85.3691 4.82082 85.5422 4.87804L85.1787 6.62173C85.038 6.57391 84.898 6.54208 84.7586 6.52623C84.6187 6.49972 84.4849 6.48899 84.357 6.49404C84.0692 6.5054 83.849 6.60483 83.6962 6.79233C83.5431 6.96917 83.4745 7.26011 83.4905 7.66512L83.5094 8.14475L84.9323 8.08859L85.0049 9.92716L83.582 9.98332L83.8224 16.0746L81.4722 16.1673Z"
              fill="white"/>
        <path d="M94.7576 16.8229C93.7835 16.7046 93.1187 16.3391 92.7633 15.7264C92.4185 15.115 92.3014 14.354 92.412 13.4434L92.7998 10.2509L91.7198 10.1197L91.9301 8.38838L93.1488 8.43971L93.6735 6.37592L95.6112 6.61131L95.3566 8.7079L97.2467 8.93749L97.0248 10.7641L95.1347 10.5345L94.7507 13.6952C94.6967 14.14 94.7475 14.4739 94.9031 14.6969C95.0705 14.9107 95.3078 15.0362 95.6148 15.0735C95.7419 15.0889 95.8709 15.0885 96.0018 15.0721C96.1433 15.0571 96.2696 15.0348 96.3807 15.0053L96.5395 16.7492C96.3306 16.7883 96.0741 16.8216 95.7699 16.8491C95.4762 16.8779 95.1388 16.8692 94.7576 16.8229Z"
              fill="white"/>
        <path d="M103.219 18.1514L106.631 7.46691L108.872 8.18237L108.035 10.804L107.495 12.1264C107.86 11.9632 108.265 11.835 108.709 11.7416C109.167 11.6414 109.65 11.6724 110.158 11.8346C110.981 12.0974 111.488 12.5616 111.678 13.2271C111.882 13.8857 111.833 14.6875 111.531 15.6325L110.032 20.327L107.792 19.6115L109.198 15.2066C109.374 14.6579 109.418 14.2576 109.33 14.0057C109.253 13.7571 109.051 13.5809 108.726 13.477C108.442 13.3862 108.177 13.3743 107.931 13.4415C107.689 13.4986 107.409 13.605 107.09 13.7609L105.46 18.8669L103.219 18.1514Z"
              fill="white"/>
        <path d="M119.882 25.1796C119.222 24.8091 118.708 24.3309 118.339 23.745C117.971 23.1592 117.784 22.5104 117.78 21.7986C117.776 21.0868 117.987 20.3495 118.415 19.5867C118.838 18.8331 119.354 18.2727 119.964 17.9053C120.583 17.5432 121.224 17.3589 121.889 17.3523C122.558 17.3364 123.167 17.4824 123.716 17.7904C124.376 18.1609 124.837 18.615 125.098 19.1528C125.374 19.6865 125.477 20.2645 125.409 20.8869C125.356 21.5052 125.152 22.1306 124.797 22.7632C124.698 22.9399 124.59 23.1115 124.472 23.2778C124.359 23.4348 124.27 23.55 124.205 23.6233L120.06 21.2983C119.871 21.8528 119.872 22.3424 120.062 22.7669C120.257 23.1821 120.582 23.5176 121.038 23.7733C121.531 24.0499 122.115 24.1756 122.79 24.1504L122.777 25.7759C122.288 25.8195 121.785 25.7884 121.27 25.6827C120.754 25.5769 120.292 25.4092 119.882 25.1796ZM120.806 19.9369L123.303 21.3381C123.517 20.9567 123.599 20.5929 123.549 20.2466C123.513 19.8963 123.29 19.6063 122.881 19.3767C122.565 19.1993 122.218 19.1517 121.842 19.2341C121.471 19.3071 121.125 19.5414 120.806 19.9369Z"
              fill="white"/>
        <path d="M129.437 31.252L133.282 24.0318L135.016 25.597L133.12 28.8433C132.903 29.1792 132.686 29.5075 132.468 29.8282C132.25 30.149 132.029 30.4813 131.805 30.8251L131.853 30.8679C132.18 30.6171 132.499 30.3666 132.811 30.1166C133.131 29.8736 133.452 29.6458 133.773 29.433L136.892 27.291L138.401 28.6526L136.6 31.9846C136.407 32.3419 136.209 32.6881 136.007 33.0231C135.813 33.3654 135.608 33.7119 135.392 34.0628L135.44 34.1057C135.767 33.8549 136.075 33.6012 136.364 33.3448C136.66 33.0955 136.969 32.8494 137.289 32.6064L140.313 30.3787L141.928 31.8368L135.197 36.4518L133.154 34.6078L134.743 31.7737C134.937 31.4466 135.132 31.1194 135.327 30.7923C135.529 30.4722 135.746 30.1289 135.976 29.7621L135.929 29.7192C135.588 29.9859 135.268 30.2364 134.97 30.4706C134.681 30.712 134.383 30.9462 134.077 31.1733L131.432 33.0532L129.437 31.252Z"
              fill="white"/>
        <path d="M142.692 45.8249C142.256 45.2056 141.999 44.5522 141.919 43.8647C141.839 43.1772 141.951 42.5115 142.254 41.8675C142.558 41.2235 143.067 40.6498 143.782 40.1463C144.488 39.6489 145.196 39.366 145.904 39.2977C146.619 39.2381 147.277 39.3486 147.879 39.6292C148.49 39.9037 148.977 40.2983 149.339 40.8129C149.775 41.4321 149.994 42.0406 149.998 42.6383C150.016 43.2386 149.86 43.8048 149.531 44.337C149.216 44.8718 148.762 45.3479 148.169 45.7655C148.003 45.8822 147.831 45.9901 147.653 46.0893C147.484 46.1824 147.354 46.2479 147.263 46.2857L144.527 42.4001C144.118 42.8189 143.907 43.2608 143.895 43.7257C143.892 44.1845 144.041 44.6275 144.342 45.0549C144.667 45.5172 145.14 45.8825 145.759 46.1508L145.046 47.6116C144.586 47.4399 144.146 47.1951 143.727 46.8772C143.307 46.5594 142.962 46.2086 142.692 45.8249ZM145.787 41.4936L147.436 43.8354C147.793 43.5836 148.024 43.2907 148.128 42.9566C148.247 42.6251 148.171 42.2675 147.901 41.8837C147.692 41.5872 147.4 41.3948 147.025 41.3067C146.659 41.2124 146.246 41.2747 145.787 41.4936Z"
              fill="white"/>
        <path d="M149.361 57.6213C149.053 56.9293 148.927 56.2383 148.982 55.5484C149.037 54.8585 149.276 54.2271 149.699 53.6542C150.121 53.0812 150.732 52.6171 151.531 52.2619C152.321 51.911 153.07 51.7707 153.778 51.8411C154.49 51.9212 155.115 52.1573 155.651 52.5493C156.197 52.937 156.598 53.4184 156.853 53.9935C157.161 54.6856 157.258 55.3251 157.146 55.9121C157.047 56.5045 156.784 57.0298 156.358 57.488C155.945 57.9515 155.407 58.3306 154.745 58.6252C154.559 58.7075 154.37 58.7801 154.176 58.8429C153.992 58.9014 153.852 58.9404 153.755 58.9599L151.825 54.6175C151.342 54.9489 151.05 55.3415 150.948 55.7953C150.856 56.2448 150.916 56.7083 151.128 57.1859C151.358 57.7025 151.75 58.1525 152.306 58.5359L151.323 59.8307C150.905 59.5729 150.521 59.2475 150.171 58.8543C149.822 58.4612 149.551 58.0502 149.361 57.6213ZM153.237 53.9725L154.4 56.5896C154.8 56.412 155.083 56.1694 155.25 55.8618C155.431 55.5596 155.426 55.1941 155.235 54.7652C155.088 54.4338 154.839 54.1885 154.488 54.0293C154.147 53.8658 153.73 53.8468 153.237 53.9725Z"
              fill="white"/>
        <path d="M153.016 66.9802L163.954 64.4991L164.46 66.7304L158.188 68.1533L158.202 68.2157L161.832 69.9681L162.398 72.4647L158.599 70.4718L154.705 74.4232L154.142 71.9422L156.757 69.5115L155.426 68.7797L153.522 69.2116L153.016 66.9802Z"
              fill="white"/>
        <path d="M160.745 82.8916L159.78 82.6558L159.827 84.8793L160.781 84.6193C161.301 84.4697 161.852 84.3141 162.436 84.1526C163.02 84.0017 163.582 83.8512 164.123 83.7012L164.121 83.6372C163.564 83.5208 162.991 83.3995 162.401 83.2731C161.823 83.1572 161.271 83.03 160.745 82.8916ZM155.387 79.2269L165.885 82.272L165.945 85.1034L155.583 88.5848L155.531 86.0894L157.997 85.3977L157.93 82.2144L155.438 81.6263L155.387 79.2269Z"
              fill="white"/>
        <path d="M154.945 94.9652L162.77 96.2867L162.451 98.1799L161.052 98.1058L161.041 98.1689C161.519 98.5417 161.85 98.9493 162.035 99.3916C162.231 99.8357 162.295 100.258 162.227 100.657C162.19 100.878 162.143 101.059 162.087 101.201C162.041 101.345 161.983 101.465 161.912 101.561L159.972 100.844C160.038 100.715 160.092 100.583 160.136 100.45C160.179 100.328 160.214 100.182 160.243 100.014C160.292 99.7193 160.234 99.3903 160.068 99.027C159.911 98.6759 159.588 98.3508 159.097 98.0517L154.554 97.2843L154.945 94.9652Z"
              fill="white"/>
        <path d="M151.265 109.178C151.587 108.251 152.086 107.679 152.76 107.461C153.43 107.254 154.199 107.301 155.065 107.602L158.103 108.658L158.46 107.631L160.108 108.203L159.799 109.383L161.704 110.334L161.063 112.178L159.069 111.484L158.443 113.282L156.705 112.678L157.331 110.88L154.323 109.834C153.9 109.687 153.563 109.666 153.312 109.771C153.068 109.889 152.895 110.094 152.793 110.386C152.751 110.507 152.724 110.633 152.712 110.765C152.697 110.906 152.692 111.034 152.697 111.149L150.959 110.935C150.965 110.722 150.987 110.464 151.025 110.161C151.059 109.868 151.139 109.54 151.265 109.178Z"
              fill="white"/>
        <path d="M147.591 118.316L155.409 120.723L154.201 122.722L150.654 121.476C150.283 121.327 149.92 121.175 149.564 121.022C149.207 120.869 148.839 120.715 148.459 120.56L148.426 120.615C148.734 120.889 149.041 121.155 149.345 121.414C149.645 121.682 149.929 121.954 150.199 122.229L152.893 124.886L151.842 126.625L148.229 125.488C147.842 125.366 147.464 125.238 147.097 125.103C146.724 124.977 146.345 124.841 145.96 124.696L145.926 124.75C146.235 125.024 146.542 125.278 146.849 125.514C147.15 125.758 147.45 126.014 147.749 126.282L150.509 128.829L149.383 130.692L143.577 124.957L145.001 122.602L148.084 123.624C148.442 123.754 148.8 123.883 149.159 124.012C149.511 124.15 149.889 124.298 150.293 124.455L150.326 124.4C150 124.115 149.693 123.849 149.407 123.601C149.115 123.362 148.829 123.115 148.548 122.857L146.201 120.616L147.591 118.316Z"
              fill="white"/>
        <path d="M135.893 133.988C136.36 133.504 136.915 133.158 137.56 132.95C138.205 132.757 138.876 132.744 139.573 132.913C140.278 133.088 140.946 133.479 141.576 134.086C142.213 134.7 142.629 135.353 142.823 136.043C143.017 136.733 143.025 137.401 142.849 138.045C142.672 138.705 142.351 139.277 141.885 139.761C141.419 140.245 140.863 140.583 140.218 140.776C139.58 140.977 138.913 140.993 138.216 140.825C137.519 140.657 136.851 140.266 136.214 139.651C135.584 139.044 135.168 138.392 134.967 137.694C134.773 137.004 134.76 136.333 134.929 135.681C135.106 135.036 135.427 134.472 135.893 133.988ZM137.264 135.309C136.931 135.655 136.826 136.057 136.947 136.515C137.077 136.98 137.387 137.449 137.879 137.923C138.378 138.404 138.859 138.697 139.321 138.801C139.783 138.906 140.181 138.785 140.514 138.44C140.854 138.086 140.964 137.681 140.842 137.223C140.713 136.773 140.399 136.307 139.899 135.826C139.408 135.352 138.931 135.056 138.468 134.936C138.006 134.831 137.605 134.956 137.264 135.309Z"
              fill="white"/>
        <path d="M128.451 140.983L133.08 147.429L131.52 148.549L130.578 147.511L130.526 147.549C130.604 148.15 130.552 148.673 130.372 149.117C130.199 149.57 129.947 149.915 129.618 150.151C129.436 150.282 129.275 150.378 129.135 150.439C129.001 150.509 128.876 150.553 128.758 150.572L127.884 148.697C128.022 148.651 128.153 148.596 128.278 148.533C128.395 148.475 128.522 148.397 128.661 148.297C128.904 148.123 129.094 147.849 129.232 147.474C129.367 147.114 129.366 146.655 129.228 146.098L126.54 142.355L128.451 140.983Z"
              fill="white"/>
        <path d="M118.706 147.342L123.499 157.483L121.43 158.46L118.682 152.645L118.624 152.673L117.7 156.596L115.385 157.69L116.507 153.549L111.806 150.604L114.106 149.517L117.046 151.543L117.471 150.085L116.637 148.32L118.706 147.342Z"
              fill="white"/>
        <path d="M102.789 153.204C103.441 153.04 104.095 153.041 104.753 153.205C105.402 153.383 105.978 153.727 106.481 154.239C106.986 154.761 107.345 155.446 107.559 156.294C107.775 157.153 107.782 157.926 107.581 158.615C107.38 159.303 107.035 159.874 106.544 160.328C106.045 160.794 105.47 161.109 104.818 161.273C104.166 161.437 103.516 161.43 102.866 161.252C102.219 161.085 101.644 160.746 101.142 160.234C100.639 159.723 100.28 159.037 100.064 158.179C99.8507 157.331 99.8432 156.557 100.041 155.858C100.242 155.17 100.587 154.594 101.075 154.13C101.566 153.677 102.137 153.368 102.789 153.204ZM103.253 155.051C102.788 155.168 102.486 155.453 102.347 155.906C102.21 156.369 102.225 156.932 102.392 157.594C102.561 158.266 102.814 158.769 103.15 159.102C103.487 159.435 103.888 159.543 104.354 159.426C104.83 159.307 105.137 159.02 105.276 158.568C105.405 158.117 105.385 157.556 105.216 156.883C105.049 156.221 104.801 155.717 104.472 155.371C104.136 155.038 103.729 154.931 103.253 155.051Z"
              fill="white"/>
        <path d="M92.3588 155.215L92.7979 161.295L93.8511 161.219L93.9767 162.958L92.9293 163.114L92.9604 163.545C93.0011 164.109 92.9422 164.626 92.7837 165.098C92.6253 165.569 92.3432 165.958 91.9377 166.266C91.5321 166.573 90.9729 166.752 90.2601 166.804C89.9303 166.828 89.6247 166.818 89.3435 166.774C89.0623 166.73 88.8343 166.682 88.6594 166.631L88.9659 164.876C89.108 164.919 89.249 164.947 89.3889 164.958C89.5295 164.98 89.6636 164.986 89.7913 164.977C90.0785 164.956 90.2954 164.85 90.4419 164.657C90.5892 164.475 90.6483 164.182 90.6191 163.778L90.5845 163.299L89.1642 163.402L89.0317 161.567L90.452 161.464L90.0129 155.384L92.3588 155.215Z"
              fill="white"/>
        <path d="M79.0591 154.993C80.0367 155.079 80.713 155.423 81.0882 156.024C81.4527 156.624 81.5946 157.38 81.5138 158.294L81.2303 161.498L82.3141 161.593L82.1604 163.331L80.9407 163.319L80.4836 165.399L78.5392 165.227L78.7253 163.123L76.8287 162.955L76.9909 161.123L78.8875 161.29L79.1681 158.119C79.2076 157.672 79.1459 157.34 78.9832 157.123C78.8088 156.914 78.5676 156.797 78.2595 156.769C78.132 156.758 78.0031 156.763 77.8727 156.783C77.7318 156.803 77.6063 156.829 77.4963 156.862L77.2806 155.125C77.4881 155.079 77.7435 155.037 78.0466 155C78.3391 154.961 78.6766 154.959 79.0591 154.993Z"
              fill="white"/>
        <path d="M70.5586 153.941L67.4972 164.731L65.2345 164.089L65.9857 161.442L66.4821 160.103C66.122 160.278 65.7215 160.419 65.2807 160.527C64.8267 160.642 64.3432 160.627 63.8301 160.481C62.9989 160.245 62.4772 159.798 62.265 159.139C62.0396 158.487 62.0623 157.684 62.3331 156.73L63.6781 151.989L65.9408 152.631L64.6787 157.08C64.5215 157.634 64.4908 158.035 64.5865 158.284C64.6719 158.53 64.8788 158.7 65.2072 158.793C65.4945 158.874 65.7597 158.878 66.0028 158.802C66.2429 158.738 66.5197 158.622 66.8329 158.456L68.2959 153.299L70.5586 153.941Z"
              fill="white"/>
        <path d="M53.6749 147.461C54.3472 147.809 54.877 148.27 55.2644 148.844C55.6518 149.418 55.8593 150.06 55.8868 150.771C55.9143 151.482 55.7267 152.226 55.3238 153.003C54.9259 153.77 54.4283 154.347 53.8309 154.734C53.2241 155.116 52.5889 155.321 51.9253 155.349C51.2568 155.387 50.6433 155.261 50.0847 154.971C49.4124 154.622 48.9371 154.183 48.6588 153.654C48.3661 153.13 48.2435 152.556 48.291 151.931C48.3241 151.312 48.5077 150.68 48.8418 150.036C48.9351 149.856 49.0379 149.681 49.1502 149.511C49.2575 149.351 49.3428 149.233 49.4059 149.157L53.624 151.346C53.7946 150.785 53.778 150.296 53.5744 149.878C53.3658 149.469 53.0295 149.145 52.5656 148.904C52.0638 148.643 51.4762 148.537 50.8028 148.584L50.7627 146.959C51.2502 146.899 51.7533 146.914 52.272 147.003C52.7907 147.092 53.2583 147.244 53.6749 147.461ZM52.9234 152.731L50.3812 151.412C50.1798 151.8 50.1099 152.166 50.1716 152.511C50.2188 152.86 50.4508 153.142 50.8674 153.358C51.1893 153.525 51.537 153.561 51.9105 153.467C52.2792 153.382 52.6168 153.136 52.9234 152.731Z"
              fill="white"/>
        <path d="M43.9277 141.703L40.3204 149.045L38.5362 147.537L40.3251 144.231C40.5309 143.888 40.7374 143.553 40.9446 143.225C41.1517 142.897 41.3616 142.558 41.5744 142.207L41.5255 142.166C41.2069 142.427 40.8957 142.688 40.5921 142.948C40.2803 143.201 39.9672 143.44 39.6529 143.663L36.6054 145.905L35.0534 144.594L36.7445 141.205C36.926 140.841 37.1121 140.489 37.3029 140.147C37.4856 139.799 37.6793 139.446 37.8839 139.088L37.835 139.047C37.5163 139.308 37.2168 139.572 36.9363 139.838C36.6477 140.096 36.3475 140.352 36.0357 140.606L33.086 142.931L31.424 141.526L38.0009 136.694L40.1028 138.47L38.6077 141.355C38.4238 141.688 38.2398 142.022 38.0559 142.355C37.8638 142.681 37.6585 143.032 37.4401 143.406L37.489 143.447C37.8215 143.169 38.1326 142.909 38.4225 142.665C38.7042 142.414 38.9941 142.17 39.2921 141.933L41.8747 139.968L43.9277 141.703Z"
              fill="white"/>
        <path d="M30.2036 127.57C30.6596 128.175 30.9386 128.82 31.0406 129.504C31.1426 130.189 31.0526 130.858 30.7705 131.511C30.4885 132.165 29.9982 132.755 29.2998 133.282C28.61 133.802 27.9121 134.108 27.2062 134.199C26.4939 134.282 25.8323 134.193 25.2215 133.932C24.6022 133.678 24.1031 133.299 23.7242 132.797C23.2682 132.192 23.0288 131.591 23.006 130.994C22.9682 130.394 23.1054 129.823 23.4176 129.281C23.7149 128.736 24.1531 128.245 24.7322 127.808C24.894 127.686 25.0623 127.573 25.2369 127.468C25.4031 127.369 25.5309 127.3 25.6204 127.259L28.4813 131.053C28.877 130.621 29.0732 130.173 29.0699 129.708C29.0581 129.249 28.8948 128.811 28.5801 128.394C28.2398 127.942 27.7557 127.593 27.1278 127.345L27.7928 125.861C28.2583 126.018 28.7058 126.248 29.1354 126.552C29.565 126.856 29.9211 127.196 30.2036 127.57ZM27.2518 132L25.5275 129.714C25.1783 129.977 24.9572 130.277 24.8642 130.615C24.7563 130.95 24.8436 131.305 25.1261 131.679C25.3445 131.969 25.6425 132.152 26.0203 132.228C26.3896 132.31 26.8001 132.234 27.2518 132Z"
              fill="white"/>
        <path d="M23.1538 115.998C23.4838 116.68 23.6325 117.366 23.5998 118.058C23.5671 118.749 23.3491 119.388 22.9456 119.974C22.5422 120.561 21.9468 121.044 21.1596 121.426C20.3819 121.802 19.638 121.967 18.9277 121.919C18.2129 121.863 17.5811 121.647 17.0325 121.273C16.4743 120.903 16.0581 120.435 15.7838 119.868C15.4538 119.187 15.3355 118.551 15.4289 117.96C15.5081 117.365 15.7534 116.832 16.1649 116.36C16.5622 115.883 17.0873 115.487 17.7401 115.17C17.9225 115.082 18.1096 115.003 18.3013 114.934C18.4834 114.87 18.6223 114.826 18.718 114.804L20.7888 119.081C21.2607 118.734 21.5402 118.332 21.6271 117.875C21.7044 117.423 21.6292 116.961 21.4015 116.491C21.1551 115.982 20.748 115.545 20.1802 115.18L21.1203 113.854C21.5465 114.098 21.9409 114.411 22.3033 114.792C22.6658 115.174 22.9493 115.576 23.1538 115.998ZM19.3988 119.771L18.1508 117.194C17.7572 117.384 17.482 117.636 17.3254 117.949C17.1545 118.257 17.1713 118.622 17.3758 119.044C17.5338 119.371 17.7908 119.608 18.1467 119.755C18.4931 119.908 18.9104 119.913 19.3988 119.771Z"
              fill="white"/>
        <path d="M19.195 106.763L8.34363 109.6L7.76494 107.386L13.9878 105.76L13.9716 105.698L10.2868 104.065L9.63928 101.588L13.5013 103.456L17.2646 99.3794L17.9081 101.841L15.3737 104.355L16.7277 105.043L18.6163 104.55L19.195 106.763Z"
              fill="white"/>
    </g>

    <g id="arrowUp">
        <path d="M6.80722 4.2806V15H9.19278V4.2806L14.3134 9.08118L16 7.5L8 0L0 7.5L1.6866 9.08118L6.80722 4.2806Z"
              fill="rgba(211, 248, 90, 1)"/>
    </g>

    <!--card-->
    <g id="clock">
        <path d="M22 12.5C22 18.02 17.52 22.5 12 22.5C6.48 22.5 2 18.02 2 12.5C2 6.98 6.48 2.5 12 2.5C17.52 2.5 22 6.98 22 12.5Z"
              stroke="white" stroke-width="1.5" stroke-linecap="round" stroke-linejoin="round"/>
        <path d="M15.71 15.68L12.61 13.83C12.07 13.51 11.63 12.74 11.63 12.11V8.01001" stroke="white" stroke-width="1.5"
              stroke-linecap="round" stroke-linejoin="round"/>
    </g>

    <g id="ethereum">
        <path d="M6.89998 9.6L11.7 7.5C11.9 7.4 12.1 7.4 12.4 7.5L17.2 9.6C17.6 9.8 18 9.3 17.7 8.9L12.7 2.8C12.4 2.4 11.8 2.4 11.5 2.8L6.49997 8.9C6.09997 9.3 6.49998 9.8 6.89998 9.6Z"
              stroke="white" stroke-width="1.5" stroke-miterlimit="10" stroke-linecap="round" stroke-linejoin="round"/>
        <path d="M6.89998 15.4L11.7 17.5C11.9 17.6 12.1 17.6 12.4 17.5L17.2 15.4C17.6 15.2 18 15.7 17.7 16.1L12.7 22.2C12.4 22.6 11.8 22.6 11.5 22.2L6.49997 16.1C6.09997 15.7 6.49998 15.2 6.89998 15.4Z"
              stroke="white" stroke-width="1.5" stroke-miterlimit="10" stroke-linecap="round" stroke-linejoin="round"/>
        <path d="M12 9.8999L6.79999 12.4999L12 15.0999L17.2 12.4999L12 9.8999Z" stroke="white" stroke-width="1.5"
              stroke-miterlimit="10" stroke-linecap="round" stroke-linejoin="round"/>
    </g>

    <!--link-->
    <g id="facebook">
        <path d="M8.30184 6.57909L8.06047 8.66955C8.05046 8.76493 8.00576 8.85332 7.93487 8.91792C7.86398 8.98253 7.77183 9.01885 7.67593 9.02H5.49411L5.4832 15.2177C5.48394 15.2912 5.45574 15.362 5.40471 15.4148C5.35367 15.4676 5.2839 15.4982 5.21047 15.5H3.00002C2.96327 15.5 2.92689 15.4926 2.89307 15.4782C2.85925 15.4639 2.82868 15.4428 2.80321 15.4163C2.77774 15.3898 2.75788 15.3584 2.74483 15.3241C2.73179 15.2897 2.72582 15.2531 2.72729 15.2164V9.02H1.09093C1.03953 9.01947 0.988746 9.00881 0.941467 8.98865C0.894189 8.96849 0.851346 8.93921 0.815384 8.90249C0.779422 8.86576 0.751045 8.82232 0.731875 8.77463C0.712704 8.72694 0.703115 8.67594 0.703655 8.62455L0.695473 6.53409C0.694752 6.48252 0.704197 6.4313 0.72327 6.38338C0.742343 6.33546 0.770669 6.29176 0.806632 6.25478C0.842595 6.21781 0.885489 6.18828 0.932865 6.16788C0.980241 6.14748 1.03117 6.13662 1.08275 6.13591H2.72729V4.11773C2.72729 1.775 4.1182 0.5 6.1582 0.5H7.83002C7.88171 0.500533 7.93279 0.511267 7.98032 0.531584C8.02785 0.551901 8.07091 0.581402 8.10702 0.618395C8.14312 0.655389 8.17157 0.699147 8.19073 0.747159C8.20989 0.795171 8.21938 0.846493 8.21866 0.898182V2.65727C8.21938 2.70896 8.20989 2.76028 8.19073 2.8083C8.17157 2.85631 8.14312 2.90007 8.10702 2.93706C8.07091 2.97405 8.02785 3.00355 7.98032 3.02387C7.93279 3.04419 7.88171 3.05492 7.83002 3.05545H6.80457C5.69593 3.05545 5.48047 3.60091 5.48047 4.38909V6.13591H7.91729C7.97271 6.1366 8.02735 6.14902 8.07763 6.17234C8.12791 6.19566 8.17268 6.22936 8.209 6.27122C8.24532 6.31308 8.27237 6.36216 8.28837 6.41522C8.30437 6.46828 8.30896 6.52413 8.30184 6.57909Z"
              fill="#090F1D"/>

    </g>

    <g id="linkedin">
        <path d="M4.14548 2.54545C4.14548 2.95001 4.02551 3.34547 3.80075 3.68185C3.576 4.01822 3.25654 4.28039 2.88278 4.43521C2.50902 4.59002 2.09775 4.63053 1.70097 4.55161C1.30419 4.47268 0.939728 4.27787 0.653666 3.99181C0.367604 3.70575 0.172794 3.34128 0.0938693 2.9445C0.0149449 2.54772 0.0554515 2.13645 0.210267 1.76269C0.365083 1.38894 0.627254 1.06948 0.963628 0.844721C1.3 0.619964 1.69547 0.5 2.10002 0.5C2.64251 0.5 3.16278 0.715503 3.54638 1.0991C3.92997 1.4827 4.14548 2.00297 4.14548 2.54545ZM3.68184 5.95455V14.9914C3.6822 15.058 3.66938 15.1241 3.64411 15.1858C3.61885 15.2475 3.58164 15.3036 3.53463 15.3509C3.48762 15.3981 3.43172 15.4356 3.37017 15.4612C3.30861 15.4868 3.2426 15.5 3.17593 15.5H1.02002C0.953354 15.5002 0.88731 15.4872 0.825684 15.4618C0.764057 15.4363 0.708064 15.399 0.660923 15.3518C0.613783 15.3047 0.576425 15.2487 0.550996 15.1871C0.525567 15.1254 0.512568 15.0594 0.512748 14.9927V5.95455C0.512748 5.82001 0.566193 5.69098 0.661325 5.59585C0.756457 5.50072 0.885484 5.44727 1.02002 5.44727H3.17593C3.31023 5.44763 3.43891 5.50124 3.53375 5.59633C3.62858 5.69142 3.68184 5.82024 3.68184 5.95455ZM14.9509 10.6591V15.0336C14.9511 15.0949 14.9392 15.1557 14.9158 15.2123C14.8924 15.269 14.8581 15.3205 14.8147 15.3638C14.7714 15.4071 14.7199 15.4415 14.6632 15.4649C14.6066 15.4882 14.5459 15.5002 14.4846 15.5H12.1664C12.1051 15.5002 12.0444 15.4882 11.9877 15.4649C11.931 15.4415 11.8796 15.4071 11.8362 15.3638C11.7929 15.3205 11.7585 15.269 11.7352 15.2123C11.7118 15.1557 11.6998 15.0949 11.7 15.0336V10.7941C11.7 10.1614 11.8855 8.02318 10.0459 8.02318C8.62093 8.02318 8.33048 9.48636 8.2732 10.1436V15.0336C8.27322 15.1562 8.22502 15.2738 8.13903 15.361C8.05304 15.4483 7.93616 15.4982 7.81366 15.5H5.57457C5.51339 15.5 5.45281 15.4879 5.3963 15.4645C5.3398 15.441 5.28848 15.4066 5.24528 15.3633C5.20208 15.32 5.16786 15.2686 5.14457 15.212C5.12128 15.1554 5.10939 15.0948 5.10957 15.0336V5.915C5.10939 5.85382 5.12128 5.79321 5.14457 5.73663C5.16786 5.68006 5.20208 5.62864 5.24528 5.58531C5.28848 5.54199 5.3398 5.50762 5.3963 5.48416C5.45281 5.46071 5.51339 5.44864 5.57457 5.44864H7.81366C7.93735 5.44864 8.05597 5.49777 8.14343 5.58523C8.23089 5.67269 8.28002 5.79131 8.28002 5.915V6.70318C8.80911 5.90955 9.5932 5.29727 11.2664 5.29727C14.9727 5.29727 14.9509 8.75818 14.9509 10.6591Z"
              fill="#090F1D"/>

    </g>

    <g id="telegram">
        <path d="M14.0373 0.204547L13.7891 0.294547L0.319118 5.14773C0.223662 5.17725 0.140699 5.2376 0.0832307 5.31934C0.0257627 5.40107 -0.00296127 5.49956 0.00156151 5.59938C0.00608429 5.69919 0.043598 5.79468 0.108223 5.87088C0.172847 5.94709 0.26093 5.99969 0.358664 6.02046L3.84548 6.975L4.49594 8.88409L5.14639 10.7932C5.18376 10.8868 5.2434 10.9698 5.32015 11.0351C5.3969 11.1004 5.48842 11.146 5.58679 11.1679C5.68515 11.1898 5.78737 11.1874 5.88457 11.1608C5.98178 11.1342 6.07103 11.0843 6.14457 11.0155L7.94594 9.31364L11.4832 11.7123C11.9155 12.0068 12.5318 11.7886 12.6423 11.3032L14.985 0.95182C15.0996 0.439093 14.5596 0.0177291 14.0373 0.204547ZM12.3178 2.50227L6.23185 7.47682L5.94548 7.71137C5.88257 7.76124 5.8415 7.8336 5.83094 7.91318L5.76685 8.44228L5.59094 9.92864C5.59238 9.94672 5.58659 9.96464 5.57482 9.97845C5.56306 9.99226 5.54629 10.0008 5.52821 10.0023C5.51013 10.0037 5.49221 9.99792 5.4784 9.98616C5.46459 9.9744 5.45602 9.95763 5.45457 9.93955L4.95957 8.45455L4.44821 6.93409C4.42658 6.86575 4.42945 6.792 4.45634 6.72555C4.48322 6.6591 4.53242 6.60409 4.59548 6.57L10.9282 2.94L12.12 2.25818C12.2932 2.15727 12.4705 2.37682 12.3178 2.50227Z"
              fill="#090F1D"/>

    </g>

    <g id="twitter">
        <path d="M14.9714 2.46047C14.6154 2.9923 14.182 3.468 13.6855 3.87183C13.6211 3.92305 13.5691 3.98817 13.5335 4.06232C13.4978 4.13647 13.4794 4.21773 13.4796 4.30001V4.35047C13.4739 5.42214 13.2772 6.48421 12.8987 7.48683C12.5087 8.53769 11.9296 9.50826 11.19 10.3505C10.2006 11.4784 8.92611 12.3196 7.50002 12.7859C6.56033 13.0909 5.57795 13.2437 4.59002 13.2386C3.02545 13.237 1.48908 12.8221 0.136386 12.0359C0.0879498 12.0084 0.0498615 11.9658 0.027945 11.9145C0.00602846 11.8633 0.00148979 11.8063 0.0150225 11.7523C0.0287373 11.6988 0.0599625 11.6515 0.103713 11.6179C0.147463 11.5843 0.201215 11.5663 0.256386 11.5668H0.630022C1.81924 11.5666 2.98126 11.211 3.96684 10.5455C3.37933 10.4494 2.8296 10.1935 2.37788 9.80579C1.92616 9.41805 1.58989 8.91345 1.40593 8.34728C1.39691 8.31937 1.3953 8.28959 1.40126 8.26087C1.40723 8.23215 1.42056 8.20547 1.43996 8.18346C1.45935 8.16145 1.48414 8.14487 1.51189 8.13533C1.53963 8.1258 1.56938 8.12366 1.5982 8.1291C1.77802 8.16329 1.96063 8.18064 2.14366 8.18092H2.21184C1.6424 7.91927 1.16097 7.49823 0.825787 6.96872C0.490608 6.43921 0.316041 5.82392 0.323204 5.19728C0.323593 5.16789 0.331579 5.13909 0.346386 5.11369C0.361193 5.08829 0.382317 5.06715 0.407707 5.05233C0.433097 5.03751 0.46189 5.02951 0.491287 5.0291C0.520684 5.02869 0.549687 5.0359 0.575477 5.05001C0.806521 5.17903 1.05433 5.2754 1.31184 5.33638C0.801912 4.83224 0.473711 4.17313 0.378699 3.46239C0.283687 2.75165 0.427237 2.02948 0.786841 1.4091C0.800636 1.38624 0.819649 1.36697 0.842323 1.35287C0.864998 1.33877 0.890689 1.33024 0.917294 1.32798C0.943899 1.32572 0.970662 1.32979 0.995391 1.33986C1.02012 1.34993 1.04211 1.36572 1.05957 1.38592C1.77375 2.26878 2.65803 2.99916 3.6599 3.53371C4.66178 4.06826 5.76084 4.39609 6.89184 4.49774H6.90411C6.92087 4.49719 6.93735 4.49329 6.95257 4.48626C6.9678 4.47923 6.98146 4.46923 6.99275 4.45683C7.00361 4.44443 7.01176 4.4299 7.01669 4.41416C7.02162 4.39843 7.02322 4.38185 7.02139 4.36547C6.97916 3.96945 7.00499 3.56913 7.09775 3.18183C7.17904 2.84276 7.31737 2.51998 7.50684 2.22728C7.90447 1.60277 8.5102 1.13905 9.21684 0.918193C9.54831 0.81427 9.89356 0.760942 10.2409 0.760011C11.0287 0.759235 11.7896 1.04633 12.3805 1.56728C12.4558 1.63419 12.5525 1.67193 12.6532 1.67365C12.6864 1.6731 12.7193 1.66852 12.7514 1.66001C13.3069 1.51947 13.8392 1.29948 14.3318 1.00683C14.3615 0.989697 14.3956 0.981896 14.4298 0.984442C14.4639 0.986989 14.4965 0.999767 14.5233 1.02111C14.5501 1.04245 14.5698 1.07137 14.58 1.10409C14.5901 1.13681 14.5901 1.17182 14.58 1.20456C14.4147 1.72067 14.1221 2.18683 13.7291 2.56001C14.0836 2.47535 14.4295 2.3585 14.7627 2.21092C14.7963 2.19595 14.8339 2.19235 14.8697 2.20065C14.9056 2.20895 14.9377 2.2287 14.9613 2.25692C14.9849 2.28513 14.9986 2.32027 15.0005 2.357C15.0023 2.39373 14.9921 2.43006 14.9714 2.46047Z"
              fill="#090F1D"/>

    </g>

</svg>
